<svg width="200" height="35" viewBox="0 0 200 35" fill="none" xmlns="http://www.w3.org/2000/svg">
<path d="M46.4253 11.5851V14.5425H52.674V17.8467H46.4253V23.3741H42.332V8.29108H53.2025V11.5851H46.4253Z" fill="black"/>
<path d="M64.6426 19.3764H61.4819V23.3741H57.3887V8.29105H65.285C66.3046 8.2769 67.3208 8.41092 68.3006 8.68878C69.0165 8.91079 69.6202 9.3919 69.9897 10.0349C70.4126 10.9159 70.605 11.887 70.5493 12.8598C70.5668 13.6439 70.5218 14.4282 70.4146 15.2054C70.3267 15.7378 70.0605 16.226 69.6581 16.5923C69.0804 17.063 68.3871 17.376 67.6477 17.5V17.6631C68.4052 17.6479 69.1422 17.9054 69.7203 18.3872C69.9753 18.6431 70.1733 18.9484 70.3018 19.2838C70.4303 19.6192 70.4863 19.9772 70.4664 20.3351V23.3945H66.3213V21.2631C66.3213 19.9985 65.7617 19.3764 64.6426 19.3764ZM61.4819 15.8683H64.6426C65.0405 15.894 65.4389 15.824 65.8032 15.6643C65.9227 15.5932 66.0247 15.4968 66.1017 15.3822C66.1788 15.2675 66.229 15.1375 66.2488 15.0014C66.3176 14.5082 66.3419 14.0099 66.3213 13.5125C66.3757 13.0315 66.2545 12.5471 65.9793 12.1459C65.5895 11.8612 65.104 11.7336 64.6218 11.789H61.4819V15.8683Z" fill="black"/>
<path d="M79.1503 11.5851V14.3386H85.6891V17.1329H79.1503V20.0699H86.2695V23.3741H75.0674V8.29108H86.1244V11.5851H79.1503Z" fill="black"/>
<path d="M95.0468 11.5851V14.3386H101.596V17.1329H95.0468V20.0699H102.166V23.3741H90.9639V8.29108H102.021V11.5851H95.0468Z" fill="black"/>
<path d="M106.735 23.3741V8.2911H114.497C115.702 8.24534 116.904 8.43959 118.031 8.86219C118.907 9.22291 119.618 9.88679 120.031 10.7285C120.502 11.8054 120.722 12.973 120.673 14.1448V17.3368C120.713 18.5113 120.534 19.683 120.145 20.794C119.829 21.641 119.205 22.3424 118.393 22.7623C117.352 23.2451 116.206 23.4693 115.057 23.4149L106.735 23.3741ZM110.818 11.7891V19.8762H114.393C115.772 19.8762 116.466 19.0093 116.466 17.2961V14.1448C116.489 13.6461 116.415 13.1477 116.248 12.6763C116.193 12.5233 116.106 12.383 115.994 12.2638C115.882 12.1446 115.746 12.0491 115.595 11.9828C115.213 11.8362 114.803 11.7701 114.393 11.7891H110.818Z" fill="black"/>
<path d="M131.834 23.4557C130.841 23.466 129.849 23.3875 128.871 23.2212C128.097 23.0912 127.357 22.8103 126.695 22.3951C126.058 21.9798 125.558 21.3917 125.254 20.7022C124.886 19.8203 124.712 18.8712 124.746 17.9181V13.6961C124.712 12.7431 124.886 11.7939 125.254 10.912C125.551 10.2075 126.052 9.60459 126.695 9.17834C127.357 8.76313 128.097 8.48229 128.871 8.35229C130.835 8.05314 132.834 8.05314 134.798 8.35229C135.576 8.48044 136.32 8.76137 136.985 9.17834C137.621 9.59368 138.121 10.1817 138.425 10.8712C138.789 11.7545 138.962 12.7027 138.933 13.6553V17.9181C138.962 18.8708 138.789 19.819 138.425 20.7022C138.128 21.4067 137.627 22.0097 136.985 22.4359C136.32 22.8529 135.576 23.1338 134.798 23.262C133.82 23.4283 132.828 23.5068 131.834 23.4965V23.4557ZM131.834 19.9986C132.426 20.0142 133.018 19.9594 133.596 19.8354C133.779 19.7878 133.95 19.7021 134.096 19.5843C134.243 19.4664 134.362 19.3191 134.446 19.1521C134.659 18.635 134.751 18.0773 134.715 17.5204V14.1244C134.727 13.6748 134.678 13.2255 134.57 12.7885C134.49 12.5023 134.32 12.2487 134.083 12.0644C133.833 11.8858 133.54 11.7734 133.233 11.7381C132.769 11.6826 132.302 11.6588 131.834 11.6667C131.25 11.6478 130.665 11.6992 130.094 11.8197C129.913 11.8674 129.746 11.9521 129.601 12.0681C129.456 12.1841 129.338 12.3288 129.254 12.4927C129.042 13.0106 128.939 13.566 128.954 14.1244V17.5204C128.939 18.0788 129.042 18.6342 129.254 19.1521C129.336 19.3184 129.454 19.4654 129.599 19.5832C129.743 19.7011 129.912 19.7871 130.094 19.8354C130.665 19.9603 131.25 20.0151 131.834 19.9986Z" fill="black"/>
<path d="M147.005 11.8094L147.419 23.3741H143.326V8.29108H149.803L152.725 17.7549H152.881L155.658 8.29108H162.29V23.3741H158.207L158.622 11.8094H158.476L154.59 23.3741H151.057L147.129 11.8094H147.005Z" fill="black"/>
<path d="M185.171 20.2331V23.3741H173.057V20.2331C173.04 19.5036 173.11 18.7746 173.264 18.0609C173.381 17.5592 173.644 17.102 174.021 16.7453C174.479 16.3546 175.01 16.0566 175.585 15.8683C176.527 15.555 177.485 15.2928 178.456 15.083C179.492 14.8383 180.197 14.6649 180.528 14.5629C180.655 14.5311 180.774 14.474 180.877 14.395C180.981 14.3161 181.067 14.217 181.129 14.104C181.257 13.7405 181.31 13.3558 181.285 12.972C181.309 12.5957 181.245 12.2189 181.098 11.8706C181.032 11.7543 180.942 11.6533 180.833 11.5741C180.724 11.495 180.599 11.4396 180.466 11.4117C180.03 11.3251 179.585 11.2874 179.14 11.2995C178.664 11.2843 178.188 11.3219 177.72 11.4117C177.593 11.4376 177.475 11.4927 177.374 11.5725C177.273 11.6523 177.193 11.7544 177.14 11.8706C177.017 12.2528 176.961 12.6529 176.974 13.0536V13.7981H173.057V13.0536C173.031 12.2107 173.164 11.3703 173.451 10.5755C173.669 9.97737 174.067 9.45835 174.591 9.08653C175.152 8.72256 175.783 8.4761 176.446 8.36247C177.329 8.21582 178.224 8.14756 179.119 8.1585C180.234 8.12889 181.348 8.23854 182.435 8.48484C183.26 8.67244 183.982 9.16075 184.456 9.85139C185.001 10.7776 185.254 11.8427 185.181 12.9108C185.194 13.5964 185.125 14.281 184.974 14.9505C184.864 15.4332 184.628 15.8795 184.29 16.2456C183.938 16.5984 183.519 16.8791 183.057 17.0717C182.383 17.3453 181.69 17.5736 180.984 17.7549C180.528 17.8773 179.948 18.0099 179.223 18.1629C178.726 18.2525 178.237 18.3821 177.762 18.5504C177.506 18.6422 177.298 18.829 177.181 19.0705C177.037 19.4266 176.973 19.8095 176.995 20.1923L185.171 20.2331Z" fill="#72BF44"/>
<path d="M198.725 8.29108V17.4694H200V20.3963H198.694V23.3741H194.819V20.3963H186.798V16.0926L192.746 8.29108H198.725ZM194.85 17.4694V11.3505H194.705L190.041 17.4694H194.85Z" fill="#72BF44"/>
<path fill-rule="evenodd" clip-rule="evenodd" d="M11.8652 10.1369V14.5425H28.0932V23.3741H11.8652C11.8652 23.3741 11.8652 33.6844 11.8652 33.7048C13.1154 34.2758 14.4255 34.7101 15.772 35C23.6787 33.3887 31.088 26.5151 31.3264 14.1652L31.4093 10.0859L11.8652 10.1369Z" fill="#2D7D2F"/>
<path d="M31.4197 10.1369L31.5751 0.611888C26.3661 0.203963 21.1054 0 15.7927 0C10.4801 0 5.21589 0.203963 0 0.611888L0.0932642 8.05653L0.248705 14.1754C0.248705 14.1754 0.248705 19.8354 2.22798 23.884C4.07711 28.2393 7.52538 31.7493 11.886 33.715V23.3843H28.0933V14.5425H11.8653V10.1369H31.4197Z" fill="#72BF44"/>
</svg>
